<?xml version="1.0" encoding="UTF-8"?>
<svg xmlns="http://www.w3.org/2000/svg" xmlns:xlink="http://www.w3.org/1999/xlink" width="150px" height="150px" viewBox="0 0 150 150" version="1.1">
<g id="surface1">
<path style=" stroke:none;fill-rule:nonzero;fill:rgb(98.823529%,28.627451%,4.313725%);fill-opacity:1;" d="M 9.445312 4.964844 L 19.179688 129.511719 C 19.328125 131.382812 20.59375 132.976562 22.378906 133.542969 L 73.609375 149.785156 C 74.515625 150.070312 75.484375 150.070312 76.390625 149.785156 L 127.621094 133.542969 C 129.40625 132.976562 130.671875 131.382812 130.820312 129.511719 L 140.554688 4.964844 C 140.765625 2.289062 138.648438 0 135.960938 0 L 14.039062 0 C 11.351562 0 9.234375 2.289062 9.445312 4.964844 Z M 115.589844 43.609375 L 52.144531 43.609375 L 54.058594 61.265625 L 114.210938 61.265625 L 110.273438 111.601562 L 75 122.785156 L 39.726562 111.601562 L 37.667969 85.304688 L 56.183594 85.304688 L 56.183594 98.203125 L 75.496094 103.386719 L 94.691406 98.203125 L 96.179688 77.644531 L 37.070312 77.644531 L 33.148438 27.441406 L 116.851562 27.441406 Z M 115.589844 43.609375 "/>
</g>
</svg>
